<?xml version="1.0" encoding="UTF-8" standalone="no"?>
<!-- Created with Inkscape (http://www.inkscape.org/) -->

<svg
   width="210mm"
   height="297mm"
   viewBox="0 0 210 297"
   version="1.1"
   id="svg5"
   inkscape:version="1.1 (c4e8f9e, 2021-05-24)"
   sodipodi:docname="dyno_logo_v2.svg"
   inkscape:export-filename="/Users/scrossley/Documents/dyno_logo.png"
   inkscape:export-xdpi="33.467632"
   inkscape:export-ydpi="33.467632"
   xmlns:inkscape="http://www.inkscape.org/namespaces/inkscape"
   xmlns:sodipodi="http://sodipodi.sourceforge.net/DTD/sodipodi-0.dtd"
   xmlns="http://www.w3.org/2000/svg"
   xmlns:svg="http://www.w3.org/2000/svg">
  <sodipodi:namedview
     id="namedview7"
     pagecolor="#ffffff"
     bordercolor="#666666"
     borderopacity="1.0"
     inkscape:pageshadow="2"
     inkscape:pageopacity="0.0"
     inkscape:pagecheckerboard="0"
     inkscape:document-units="mm"
     showgrid="false"
     inkscape:zoom="1.1610741"
     inkscape:cx="307.04329"
     inkscape:cy="279.91324"
     inkscape:window-width="1792"
     inkscape:window-height="982"
     inkscape:window-x="0"
     inkscape:window-y="25"
     inkscape:window-maximized="1"
     inkscape:current-layer="layer1" />
  <defs
     id="defs2" />
  <g
     inkscape:label="Layer 1"
     inkscape:groupmode="layer"
     id="layer1">
    <circle
       id="path1021"
       style="fill:#000000;stroke:#000000;stroke-width:0.264583"
       cx="36.517166"
       cy="48.076111"
       r="0.26063302"
       inkscape:export-filename="/Users/scrossley/Documents/dyno_logo2.png"
       inkscape:export-xdpi="120.10126"
       inkscape:export-ydpi="120.10126" />
    <text
       xml:space="preserve"
       style="font-style:normal;font-variant:normal;font-weight:normal;font-stretch:normal;font-size:22.3158px;line-height:1.25;font-family:Courier;-inkscape-font-specification:Courier;fill:#000000;fill-opacity:1;stroke:none;stroke-width:0.304305"
       x="10.018677"
       y="64.076035"
       id="text2925-0"
       inkscape:export-filename="/Users/scrossley/Documents/dyno_logo2.png"
       inkscape:export-xdpi="120.10126"
       inkscape:export-ydpi="120.10126"
       transform="scale(1.1501337,0.86946414)"><tspan
         sodipodi:role="line"
         id="tspan2923-2"
         style="font-style:normal;font-variant:normal;font-weight:normal;font-stretch:normal;font-size:22.3158px;font-family:Courier;-inkscape-font-specification:Courier;stroke-width:0.304305"
         x="10.018677"
         y="64.076035">DYNOLOG</tspan></text>
    <path
       style="fill:#c86464;fill-opacity:1;stroke:#000000;stroke-width:0.814856;stroke-linecap:butt;stroke-linejoin:miter;stroke-miterlimit:4;stroke-dasharray:none;stroke-opacity:1"
       d="m 91.322215,33.987023 c 4.913017,1.7621 10.532165,3.71445 10.532165,3.71445 0,0 0.2197,-6.608053 0.8452,-7.843296 -3.174107,-4.409995 -6.869427,-7.021609 -9.36983,-12.35048 -1.542954,3.699254 -4.937571,11.251597 -4.937571,11.251597 0,0 -1.096801,1.201359 0.45625,3.319409 0.523497,0.75628 2.473785,1.9083 2.473785,1.9083 z"
       id="path1337-1-0"
       inkscape:export-filename="/Users/scrossley/Documents/dyno_logo2.png"
       inkscape:export-xdpi="120.10126"
       inkscape:export-ydpi="120.10126"
       sodipodi:nodetypes="cccccccc" />
    <path
       style="fill:#c86464;fill-opacity:1;stroke:#000000;stroke-width:0.814856;stroke-linecap:butt;stroke-linejoin:miter;stroke-miterlimit:4;stroke-dasharray:none;stroke-opacity:1"
       d="m 75.606462,30.056915 c 2.577861,-2.485108 2.133681,-9.075857 2.133681,-9.075857 l -9.155235,-9.31958 c -0.491273,5.487108 -7.210106,7.311817 -7.138746,11.660987 0.03018,0.934218 0.847158,5.698376 0.847158,5.698376 0,0 4.528344,0.03655 6.350257,0.378482 1.821913,0.341937 6.962885,0.657592 6.962885,0.657592 z"
       id="path1742-5"
       inkscape:export-filename="/Users/scrossley/Documents/dyno_logo2.png"
       inkscape:export-xdpi="120.10126"
       inkscape:export-ydpi="120.10126"
       sodipodi:nodetypes="cccccsc" />
    <path
       style="fill:#c86464;fill-opacity:1;stroke:#000000;stroke-width:0.814856;stroke-linecap:butt;stroke-linejoin:miter;stroke-miterlimit:4;stroke-dasharray:none;stroke-opacity:1"
       d="m 30.493109,36.603333 c 0,0 -0.39278,-1.21924 -0.0701,-2.16826 0.32273,-0.94903 0.0315,-1.76089 0.0315,-1.76089 0,0 -4.0397,-1.981333 -6.60293,-2.015845 -2.56322,-0.03451 -4.22494,0.488483 -4.22494,0.488483 0,0 -2.43826,3.833182 -2.9432,4.612102 -0.50491,0.77893 -0.27159,2.53126 -0.27159,2.53126 0,0 2.06396,0.98925 2.68933,1.2037 0.62537,0.21444 1.52876,0.83054 1.52876,0.83054 0,0 5.00222,-1.04155 6.04994,-1.42738 1.04771,-0.38582 3.81324,-2.29371 3.81324,-2.29371 z"
       id="path2005-6"
       inkscape:export-filename="/Users/scrossley/Documents/dyno_logo2.png"
       inkscape:export-xdpi="120.10126"
       inkscape:export-ydpi="120.10126" />
    <path
       style="fill:#c86464;fill-opacity:1;stroke:#000000;stroke-width:0.814856;stroke-linecap:butt;stroke-linejoin:miter;stroke-miterlimit:4;stroke-dasharray:none;stroke-opacity:1"
       d="m 76.705747,28.016652 -0.553894,-2.674081 c 0,0 2.064626,-3.898426 3.789453,-5.150757 1.912986,-1.388946 6.733202,-2.227594 6.733202,-2.227594 0,0 -0.25417,3.01735 0.229315,5.425898 0.48348,2.40855 2.85159,5.18131 2.85159,5.18131 0,0 -1.895525,0.970308 -2.797519,1.302475 -0.901994,0.332164 -2.648819,1.196654 -2.648819,1.196654 0,0 -2.564829,0.244968 -3.663055,-0.375786 -0.882937,-0.499066 -2.478483,-0.76021 -3.330093,-1.071262 -0.344022,-0.125654 -0.610175,-1.606857 -0.610175,-1.606857 z"
       id="path2120-0"
       sodipodi:nodetypes="ccscscscsccc"
       inkscape:export-filename="/Users/scrossley/Documents/dyno_logo2.png"
       inkscape:export-xdpi="120.10126"
       inkscape:export-ydpi="120.10126" />
    <path
       style="fill:#c86464;fill-opacity:1;stroke:#000000;stroke-width:0.814856;stroke-linecap:butt;stroke-linejoin:miter;stroke-miterlimit:4;stroke-dasharray:none;stroke-opacity:1"
       d="m 102.2228,37.930543 -0.36168,-1.89825 0.042,-1.92985 9.24076,-6.638349 c 0,0 1.39936,3.85621 2.13242,6.232379 0.73306,2.37615 2.8133,3.64101 2.8133,3.64101 0,0 -2.56008,1.60061 -3.42717,1.97269 -0.86709,0.37208 -2.52336,1.31294 -2.52336,1.31294 0,0 -2.68142,-0.68606 -3.84348,-1.25386 -1.31167,-0.6409 -4.07277,-1.43871 -4.07277,-1.43871 z"
       id="path2120-0-1"
       sodipodi:nodetypes="ccccccscscc"
       inkscape:export-filename="/Users/scrossley/Documents/dyno_logo2.png"
       inkscape:export-xdpi="120.10126"
       inkscape:export-ydpi="120.10126" />
    <path
       style="fill:#c86464;fill-opacity:1;stroke:#000000;stroke-width:0.814856;stroke-linecap:butt;stroke-linejoin:miter;stroke-miterlimit:4;stroke-dasharray:none;stroke-opacity:1"
       d="m 49.762383,30.404984 c 0,0 3.578225,0.05008 6.54808,-0.70862 2.969856,-0.758697 4.324736,-0.353563 4.324736,-0.353563 0,0 -0.120954,-1.831424 0.504553,-3.066665 0.819307,-1.000358 1.407227,-2.329668 1.407227,-2.329668 0,0 -2.087867,-2.179993 -5.193484,-4.291749 -3.31538,-2.212485 -5.583577,-5.729063 -5.583577,-5.729063 -1.542954,3.699254 -6.052084,9.529882 -6.052084,9.529882 0,0 0.01771,2.923074 1.570763,5.041119 0.523497,0.756288 2.473785,1.908307 2.473785,1.908307 z"
       id="path1337-1"
       inkscape:export-filename="/Users/scrossley/Documents/dyno_logo2.png"
       inkscape:export-xdpi="120.10126"
       inkscape:export-ydpi="120.10126"
       sodipodi:nodetypes="csccccccccc" />
    <path
       style="fill:#c86464;fill-opacity:1;stroke:#000000;stroke-width:0.814856;stroke-linecap:butt;stroke-linejoin:miter;stroke-miterlimit:4;stroke-dasharray:none;stroke-opacity:1"
       d="m 47.136738,31.297594 c 0,0 -0.751265,-1.597077 3.37e-4,-2.980977 0.751593,-1.383895 -0.136257,-2.768641 -0.136257,-2.768641 0,0 -1.179364,-1.064399 -3.763908,-2.587266 -2.322452,-1.368437 -10.863081,-2.64359 -10.863081,-2.64359 0,0 -1.21827,5.756211 -1.51775,7.04997 -0.29945,1.293757 -0.35722,5.677623 -0.35722,5.677623 0,0 0.0548,2.56539 1.88521,2.88392 1.83041,0.31853 2.06257,0.4621 2.06257,0.4621 0,0 4.58608,-2.4142 6.273591,-2.99747 1.687525,-0.58327 6.416513,-2.095669 6.416513,-2.095669 z"
       id="path1857-1"
       inkscape:export-filename="/Users/scrossley/Documents/dyno_logo2.png"
       inkscape:export-xdpi="120.10126"
       inkscape:export-ydpi="120.10126"
       sodipodi:nodetypes="cscscccscscc" />
    <path
       style="fill:none;stroke:#000000;stroke-width:2.44457;stroke-linecap:butt;stroke-linejoin:miter;stroke-miterlimit:4;stroke-dasharray:none;stroke-opacity:1"
       d="m 14.856499,41.540693 c 4.66437,-1.02843 10.36329,-2.43411 14.7652,-3.99017 8.97395,-3.17226 24.793653,-8.868914 39.357191,-8.35291 15.511367,0.549587 23.437504,5.08387 29.041106,7.52312 5.603604,2.43924 13.174774,4.70584 17.922284,5.07651"
       id="path902-3"
       sodipodi:nodetypes="csssc"
       inkscape:export-filename="/Users/scrossley/Documents/dyno_logo2.png"
       inkscape:export-xdpi="120.10126"
       inkscape:export-ydpi="120.10126" />
  </g>
</svg>
