<?xml version="1.0" encoding="UTF-8" standalone="no"?>
<!-- Created with Inkscape (http://www.inkscape.org/) -->

<svg
   width="110mm"
   height="50mm"
   viewBox="0 0 110 50"
   version="1.1"
   id="svg5"
   inkscape:version="1.1 (c4e8f9e, 2021-05-24)"
   sodipodi:docname="dyno_logo_v2.svg"
   inkscape:export-filename="/Users/scrossley/Documents/dyno_logo.png"
   inkscape:export-xdpi="33.467632"
   inkscape:export-ydpi="33.467632"
   xmlns:inkscape="http://www.inkscape.org/namespaces/inkscape"
   xmlns:sodipodi="http://sodipodi.sourceforge.net/DTD/sodipodi-0.dtd"
   xmlns="http://www.w3.org/2000/svg"
   xmlns:svg="http://www.w3.org/2000/svg">
  <sodipodi:namedview
     id="namedview7"
     pagecolor="#ffffff"
     bordercolor="#666666"
     borderopacity="1.0"
     inkscape:pageshadow="2"
     inkscape:pageopacity="0.0"
     inkscape:pagecheckerboard="0"
     inkscape:document-units="mm"
     showgrid="false"
     inkscape:zoom="1.1610741"
     inkscape:cx="49.52311"
     inkscape:cy="347.52304"
     inkscape:window-width="3360"
     inkscape:window-height="1837"
     inkscape:window-x="2048"
     inkscape:window-y="25"
     inkscape:window-maximized="1"
     inkscape:current-layer="layer1"
     width="100mm" />
  <defs
     id="defs2" />
  <g
     inkscape:label="Layer 1"
     inkscape:groupmode="layer"
     id="layer1">
    <circle
       id="path1021"
       style="fill:#000000;stroke:#000000;stroke-width:0.264583"
       cx="25.88031"
       cy="38.806522"
       r="0.26063302"
       inkscape:export-filename="/Users/scrossley/Documents/dyno_logo2.png"
       inkscape:export-xdpi="120.10126"
       inkscape:export-ydpi="120.10126" />
    <text
       xml:space="preserve"
       style="font-style:normal;font-variant:normal;font-weight:normal;font-stretch:normal;font-size:22.3158px;line-height:1.25;font-family:Courier;-inkscape-font-specification:Courier;fill:#000000;fill-opacity:1;stroke:none;stroke-width:0.304305"
       x="0.7703101"
       y="53.414764"
       id="text2925-0"
       inkscape:export-filename="/Users/scrossley/Documents/dyno_logo2.png"
       inkscape:export-xdpi="120.10126"
       inkscape:export-ydpi="120.10126"
       transform="scale(1.1501337,0.86946414)"><tspan
         sodipodi:role="line"
         id="tspan2923-2"
         style="font-style:normal;font-variant:normal;font-weight:normal;font-stretch:normal;font-size:22.3158px;font-family:Courier;-inkscape-font-specification:Courier;stroke-width:0.304305"
         x="0.7703101"
         y="53.414764">DYNOLOG</tspan></text>
    <path
       style="fill:#c86464;fill-opacity:1;stroke:#000000;stroke-width:0.814856;stroke-linecap:butt;stroke-linejoin:miter;stroke-miterlimit:4;stroke-dasharray:none;stroke-opacity:1"
       d="m 80.685356,24.717433 c 4.913017,1.7621 10.532165,3.71445 10.532165,3.71445 0,0 0.2197,-6.608053 0.8452,-7.843296 C 88.888614,16.178592 85.193294,13.566978 82.692891,8.2381067 81.149937,11.937361 77.75532,19.489704 77.75532,19.489704 c 0,0 -1.096801,1.201359 0.45625,3.319409 0.523497,0.75628 2.473785,1.9083 2.473785,1.9083 z"
       id="path1337-1-0"
       inkscape:export-filename="/Users/scrossley/Documents/dyno_logo2.png"
       inkscape:export-xdpi="120.10126"
       inkscape:export-ydpi="120.10126"
       sodipodi:nodetypes="cccccccc" />
    <path
       style="fill:#c86464;fill-opacity:1;stroke:#000000;stroke-width:0.814856;stroke-linecap:butt;stroke-linejoin:miter;stroke-miterlimit:4;stroke-dasharray:none;stroke-opacity:1"
       d="m 64.969606,20.787325 c 2.57786,-2.485108 2.13368,-9.075857 2.13368,-9.075857 l -9.15524,-9.3195803 c -0.49127,5.487108 -7.2101,7.311817 -7.13874,11.6609873 0.0302,0.934218 0.84716,5.698376 0.84716,5.698376 0,0 4.52834,0.03655 6.35025,0.378482 1.82192,0.341937 6.96289,0.657592 6.96289,0.657592 z"
       id="path1742-5"
       inkscape:export-filename="/Users/scrossley/Documents/dyno_logo2.png"
       inkscape:export-xdpi="120.10126"
       inkscape:export-ydpi="120.10126"
       sodipodi:nodetypes="cccccsc" />
    <path
       style="fill:#c86464;fill-opacity:1;stroke:#000000;stroke-width:0.814856;stroke-linecap:butt;stroke-linejoin:miter;stroke-miterlimit:4;stroke-dasharray:none;stroke-opacity:1"
       d="m 19.856246,27.333743 c 0,0 -0.39278,-1.21924 -0.0701,-2.16826 0.32273,-0.94903 0.0315,-1.76089 0.0315,-1.76089 0,0 -4.0397,-1.981333 -6.60293,-2.015845 -2.56322,-0.03451 -4.2249404,0.488483 -4.2249404,0.488483 0,0 -2.4382599,3.833182 -2.9431999,4.612102 -0.50491,0.77893 -0.27159,2.53126 -0.27159,2.53126 0,0 2.06396,0.98925 2.6893302,1.2037 0.6253697,0.21444 1.5287594,0.83054 1.5287594,0.83054 0,0 5.0022207,-1.04155 6.0499407,-1.42738 1.04771,-0.38582 3.81324,-2.29371 3.81324,-2.29371 z"
       id="path2005-6"
       inkscape:export-filename="/Users/scrossley/Documents/dyno_logo2.png"
       inkscape:export-xdpi="120.10126"
       inkscape:export-ydpi="120.10126" />
    <path
       style="fill:#c86464;fill-opacity:1;stroke:#000000;stroke-width:0.814856;stroke-linecap:butt;stroke-linejoin:miter;stroke-miterlimit:4;stroke-dasharray:none;stroke-opacity:1"
       d="m 66.068886,18.747062 -0.55389,-2.674081 c 0,0 2.06462,-3.898426 3.78945,-5.150757 1.91299,-1.3889463 6.733203,-2.2275943 6.733203,-2.2275943 0,0 -0.25417,3.0173503 0.229315,5.4258983 0.48348,2.40855 2.85159,5.18131 2.85159,5.18131 0,0 -1.895525,0.970308 -2.797519,1.302475 -0.901994,0.332164 -2.648819,1.196654 -2.648819,1.196654 0,0 -2.56483,0.244968 -3.66305,-0.375786 -0.88294,-0.499066 -2.47849,-0.76021 -3.3301,-1.071262 -0.34402,-0.125654 -0.61017,-1.606857 -0.61017,-1.606857 z"
       id="path2120-0"
       sodipodi:nodetypes="ccscscscsccc"
       inkscape:export-filename="/Users/scrossley/Documents/dyno_logo2.png"
       inkscape:export-xdpi="120.10126"
       inkscape:export-ydpi="120.10126" />
    <path
       style="fill:#c86464;fill-opacity:1;stroke:#000000;stroke-width:0.814856;stroke-linecap:butt;stroke-linejoin:miter;stroke-miterlimit:4;stroke-dasharray:none;stroke-opacity:1"
       d="m 91.585941,28.660953 -0.36168,-1.89825 0.042,-1.92985 9.240759,-6.638349 c 0,0 1.39936,3.85621 2.13242,6.232379 0.73306,2.37615 2.8133,3.64101 2.8133,3.64101 0,0 -2.56008,1.60061 -3.42717,1.97269 -0.86709,0.37208 -2.523357,1.31294 -2.523357,1.31294 0,0 -2.681422,-0.68606 -3.843482,-1.25386 -1.31167,-0.6409 -4.07277,-1.43871 -4.07277,-1.43871 z"
       id="path2120-0-1"
       sodipodi:nodetypes="ccccccscscc"
       inkscape:export-filename="/Users/scrossley/Documents/dyno_logo2.png"
       inkscape:export-xdpi="120.10126"
       inkscape:export-ydpi="120.10126" />
    <path
       style="fill:#c86464;fill-opacity:1;stroke:#000000;stroke-width:0.814856;stroke-linecap:butt;stroke-linejoin:miter;stroke-miterlimit:4;stroke-dasharray:none;stroke-opacity:1"
       d="m 39.125526,21.135394 c 0,0 3.57822,0.05008 6.54808,-0.70862 2.96985,-0.758697 4.32473,-0.353563 4.32473,-0.353563 0,0 -0.12095,-1.831424 0.50456,-3.066665 0.8193,-1.000358 1.40722,-2.329668 1.40722,-2.329668 0,0 -2.08786,-2.179993 -5.19348,-4.291749 -3.31538,-2.2124853 -5.58358,-5.7290633 -5.58358,-5.7290633 -1.54295,3.699254 -6.05208,9.5298823 -6.05208,9.5298823 0,0 0.0177,2.923074 1.57076,5.041119 0.5235,0.756288 2.47379,1.908307 2.47379,1.908307 z"
       id="path1337-1"
       inkscape:export-filename="/Users/scrossley/Documents/dyno_logo2.png"
       inkscape:export-xdpi="120.10126"
       inkscape:export-ydpi="120.10126"
       sodipodi:nodetypes="csccccccccc" />
    <path
       style="fill:#c86464;fill-opacity:1;stroke:#000000;stroke-width:0.814856;stroke-linecap:butt;stroke-linejoin:miter;stroke-miterlimit:4;stroke-dasharray:none;stroke-opacity:1"
       d="m 36.499876,22.028004 c 0,0 -0.75126,-1.597077 3.4e-4,-2.980977 0.75159,-1.383895 -0.13626,-2.768641 -0.13626,-2.768641 0,0 -1.17936,-1.064399 -3.7639,-2.587266 -2.32246,-1.368437 -10.86309,-2.64359 -10.86309,-2.64359 0,0 -1.21827,5.756211 -1.51775,7.04997 -0.29945,1.293757 -0.35722,5.677623 -0.35722,5.677623 0,0 0.0548,2.56539 1.88521,2.88392 1.83041,0.31853 2.06257,0.4621 2.06257,0.4621 0,0 4.58608,-2.4142 6.2736,-2.99747 1.68752,-0.58327 6.41651,-2.095669 6.41651,-2.095669 z"
       id="path1857-1"
       inkscape:export-filename="/Users/scrossley/Documents/dyno_logo2.png"
       inkscape:export-xdpi="120.10126"
       inkscape:export-ydpi="120.10126"
       sodipodi:nodetypes="cscscccscscc" />
    <path
       style="fill:none;stroke:#000000;stroke-width:2.44457;stroke-linecap:butt;stroke-linejoin:miter;stroke-miterlimit:4;stroke-dasharray:none;stroke-opacity:1"
       d="m 4.2196357,32.271103 c 4.6643702,-1.02843 10.3632903,-2.43411 14.7652003,-3.99017 8.97395,-3.17226 24.79366,-8.868914 39.3572,-8.35291 15.51136,0.549587 23.437499,5.08387 29.041101,7.52312 5.603604,2.43924 13.174773,4.70584 17.922283,5.07651"
       id="path902-3"
       sodipodi:nodetypes="csssc"
       inkscape:export-filename="/Users/scrossley/Documents/dyno_logo2.png"
       inkscape:export-xdpi="120.10126"
       inkscape:export-ydpi="120.10126" />
  </g>
</svg>
